<svg xmlns="http://www.w3.org/2000/svg" width="256" height="256" viewBox="0 0 256 256" role="img" aria-label="QONJO | works beautifully | ይሰራል!"><title>QONJO | works beautifully | ይሰራል!</title><defs><linearGradient id="body" x1="35" y1="76" x2="208" y2="217" gradientUnits="userSpaceOnUse"><stop stop-color="#06B6D4"/><stop offset="0.48" stop-color="#2563EB"/><stop offset="1" stop-color="#4F46E5"/></linearGradient><linearGradient id="ribbon" x1="103" y1="19" x2="48" y2="117" gradientUnits="userSpaceOnUse"><stop stop-color="#06B6D4"/><stop offset="0.54" stop-color="#06B6D4"/><stop offset="1" stop-color="#2563EB"/></linearGradient><linearGradient id="tail" x1="112" y1="142" x2="226" y2="221" gradientUnits="userSpaceOnUse"><stop stop-color="#2563EB"/><stop offset="0.65" stop-color="#4F46E5"/><stop offset="1" stop-color="#7C3AED"/></linearGradient><linearGradient id="brand" x1="0" y1="0" x2="1" y2="1"><stop stop-color="#06B6D4"/><stop offset="0.55" stop-color="#2563EB"/><stop offset="1" stop-color="#7C3AED"/></linearGradient></defs><g id="qonjo-symbol" transform="translate(0 0) scale(1.0)"><path fill="#2563EB" fill-rule="evenodd" d="M 129 49 C 177 49 216 88 216 136 C 216 184 177 223 129 223 C 81 223 42 184 42 136 C 42 88 81 49 129 49 Z M 129 84 C 100 84 77 107 77 136 C 77 165 100 188 129 188 C 158 188 181 165 181 136 C 181 107 158 84 129 84 Z"/><path fill="#06B6D4" d="M 43 123 C 43 91 61 67 84 44 L 107 20 C 119 7 134 14 134 27 C 134 50 109 76 81 96 C 67 106 53 115 43 123 Z"/><path fill="#4F46E5" d="M 108 148 C 124 136 143 137 159 151 L 229 212 C 211 229 187 227 169 211 Z"/><circle cx="177" cy="25" r="16" fill="#2563EB"/></g></svg>